#!OML:ASF F:\VICON\USERDATA\INSTALL\rory3\rory3.ASF
:FULLY-SPECIFIED
:DEGREES
36
root -0.18754816158329085 17.777860084167365 8.38627571189339 -1.8612096778572818 0.41473034344540727 -1.457248124773781
lfemur 8.50350064535452 -6.596808212041971 -22.60982601864894
ltibia 30.10622488251534
lfoot -2.195137980331625 -5.067497067100678
ltoes -4.891997416492561
rfemur -24.766504470081536 5.5428200894627135 23.280989594404726
rtibia 24.45996550417096
rfoot -4.029755213025276 -8.769429594261647
rtoes -0.07794671514796381
lowerback 9.510548081822263 -1.0367155405236415 1.026712398426563
upperback 0.5425848942602953 -0.9505847200350988 2.6317286193890803
thorax -4.834906397413418 -0.4813658551623452 3.146293459534076
lowerneck -16.751881227947734 -2.7271712974742037 -3.3877567038205063
upperneck 22.153222014052464 -3.2579011460088987 1.0893045317952166
head 9.702577974759736 -1.6183610884486905 0.4535835835125761
lclavicle -1.9529519734840574e-15 9.072027588531865e-16
lhumerus -23.86936956137138 -1.6345866960981537 83.60884136067872
lradius 31.593592249246708
lwrist 6.821996307961222
lhand -27.409525377106057 26.691828324472244
lfingers 7.12502
lthumb -0.7302361381897017 56.735751252153534
rclavicle -1.954378777985777e-15 9.052663385195032e-16
rhumerus -33.056850672126124 -25.697510022689528 -75.42716581582157
rradius 22.488403011431778
rwrist 9.098346420555771
rhand -17.563421070652524 21.604014324422206
rfingers 7.12502
rthumb 8.511248726341028 -8.07572008539849
37
root -0.21665516470622542 18.10572885585871 7.546808798945991 -2.0321038021904716 0.7657178080756015 -3.4606663457290434
lfemur 3.5447014557475605 -6.232417328039308 -19.405963306879613
ltibia 41.1071970097223
lfoot -2.67447040273424 -6.256647157139223
ltoes -10.709846122319009
rfemur -20.807808854322765 5.754952144110087 26.013048977042132
rtibia 25.243405720789106
rfoot -4.12495504150144 -5.34018855859612
rtoes 4.151870573742271
lowerback 9.327379510326502 -1.2444854044388372 2.6715759951985243
upperback 0.5322555973340043 -0.8097754085621394 3.06986853989623
thorax -4.866724190298554 -0.41837598232883144 2.7589558030414225
lowerneck -16.612421467391073 -2.627261071914567 -3.2759392715721765
upperneck 22.101678129631857 -3.1129750689460534 0.8245098911931441
head 9.661628151998794 -1.5678019044435145 0.39416743172692736
lclavicle -1.953020850927098e-15 9.07113872172009e-16
lhumerus -25.3175845006619 -1.1229928799200852 83.70474490325573
lradius 31.120916566291932
lwrist 6.54909005472814
lhand -27.92453662697964 25.66330768564152
lfingers 7.12502
lthumb -1.0459445113574057 56.039966074557334
rclavicle -1.9562804443198396e-15 9.036982890081238e-16
rhumerus -33.07204513262036 -26.158368335493677 -74.97177084635533
rradius 21.973578011296603
rwrist 9.818349502208987
rhand -17.565547004188318 21.89405008676507
rfingers 7.12502
rthumb 8.551446748245585 -7.86144950700115
38
root -0.3204862321231066 18.187358159297258 7.873123512998555 -2.8502296126194344 1.2042219693725946 -4.19389349547528
lfemur -1.7076530286210456 -5.214754176062925 -16.85151535938265
ltibia 51.45380306922545
lfoot -1.5223686557084894 -10.337515403349967
ltoes -16.17371619236913
rfemur -17.485384274797227 5.1709845522766535 27.817930035475403
rtibia 26.133549294187276
rfoot -5.580603174167131 -4.084484168258998
rtoes 8.066116525316318
lowerback 9.360939386387045 -1.3686993603915742 2.815343588617735
upperback 0.4396570565338068 -0.959443499101905 3.239944888465351
thorax -4.964653736292793 -0.5083903872963069 2.4482866287465366
lowerneck -16.40386876355344 -2.573234403317527 -3.209191416811215
upperneck 21.990163766960066 -3.0258600305898584 0.6897084742172321
head 9.588096741019125 -1.5351511597889882 0.3630200897369401
lclavicle -1.953388422012292e-15 9.068064903102987e-16
lhumerus -26.548862262762846 -1.4428493029472305 83.82275395592761
lradius 30.559318892725333
lwrist 6.678098856684844
lhand -27.784194321955525 24.947221947622957
lfingers 7.12502
lthumb -0.9002030747607117 55.48893808661527
rclavicle -1.958100727184375e-15 9.020196546512604e-16
rhumerus -32.70686387226422 -25.451261417871414 -75.26464000735916
rradius 21.879607577112974
rwrist 9.703574158221432
rhand -17.56531522027979 22.028223716877633
rfingers 7.12502
rthumb 8.591238135897187 -7.817863413887622
39
root -0.37970107859254837 18.267327941950917 7.651492794754373 -3.28302959878431 1.6385214481383192 -4.6449511828901
lfemur -6.661151280293675 -4.636580331933409 -15.331756288009274
ltibia 59.547784771964366
lfoot 3.7830264565020846 -11.490700690269053
ltoes -12.764570817804993
rfemur -14.602891377068747 4.734281596651269 29.113237380157234
rtibia 26.826495770656752
rfoot -6.900628777592255 -3.7007529567308746
rtoes 9.647072630942239
lowerback 9.346723222268176 -1.3081816124863574 2.680373450219042
upperback 0.40923231145665107 -0.9320443116105945 3.282386540742613
thorax -4.979185440070342 -0.505276233785771 2.1231804975320743
lowerneck -16.3398723253902 -2.5787263207025903 -3.1214147341183693
upperneck 21.88415183526615 -3.028854329954043 0.6666086483371658
head 9.56154630733778 -1.536554303200177 0.34817968181423203
lclavicle -1.9538441827797027e-15 9.063645514990112e-16
lhumerus -27.488212277736828 -1.786417571185506 83.85041660064044
lradius 29.791517178827814
lwrist 6.478187694977153
lhand -27.33929441516085 24.86682536834596
lfingers 7.12502
lthumb -0.4475799508399213 55.483713850978376
rclavicle -1.9578452739767635e-15 9.023724993272068e-16
rhumerus -31.858895225963884 -23.78511730381495 -76.32567760431921
rradius 22.174623598596963
rwrist 8.733904386093803
rhand -17.530757321353487 21.943209846654817
rfingers 7.12502
rthumb 8.622846406440154 -7.985156908388082
40
root -0.2912394258356141 18.334680806556086 8.909460309842059 -2.878375863364645 0.9944017309850883 -5.473569656012655
lfemur -11.306468742809455 -3.897213477311821 -14.28246324175656
ltibia 64.91094907844356
lfoot 5.575969952129328 -9.37367613923305
ltoes -8.475685082318641
rfemur -12.12823754502781 4.789543445492665 30.67944292740678
rtibia 27.756062029558283
rfoot -7.766711033776741 -3.581981166091385
rtoes 10.367175906302814
lowerback 9.211910732917215 -0.9642083971709309 3.5314994860575766
upperback 0.4602288720341535 -0.45605214975037445 3.1850012482661434
thorax -4.978890679082371 -0.29685095273229345 1.6667315162978444
lowerneck -16.1430119953446 -2.6126999207583443 -3.0532429673729915
upperneck 21.885389460692096 -3.0768799365710944 0.7395164666084143
head 9.550530413000887 -1.551588414900333 0.36840314001011626
lclavicle -1.9533498248517392e-15 9.068353647118581e-16
lhumerus -28.373251182926353 -1.3465265774282005 83.62142794952386
lradius 28.89511582951835
lwrist 5.618070499876582
lhand -26.705786804003658 25.311243780397533
lfingers 7.12502
lthumb 0.10153201328003003 55.899724819752244
rclavicle -1.9570553410145946e-15 9.030383976610547e-16
rhumerus -30.649625079283823 -21.842992887247224 -77.58096553789376
rradius 22.451252561590703
rwrist 8.017516187580643
rhand -17.450731049746327 22.015873051903124
rfingers 7.12502
rthumb 8.721492453088324 -7.876231696915255
41
root -0.38237281047820576 18.262468738039555 9.220717715905828 -2.925002001586628 0.571663321842264 -6.073819719117539
lfemur -15.084060462479522 -2.9683399122183824 -13.715893613883747
ltibia 67.07683097220445
lfoot 1.8427152162976776 -6.9428328105486345
ltoes -10.819793377620822
rfemur -9.948295513035909 4.913391370535848 31.965053538841673
rtibia 29.080560307218786
rfoot -8.036255559856942 -3.4083681296815542
rtoes 9.829555675458861
lowerback 9.332175992728207 -0.5439383529672438 4.329182677045738
upperback 0.48157268169836864 0.171250526846346 3.0039279868411883
thorax -4.983002851566039 0.011627822443820213 1.1733452974828817
lowerneck -16.017876355820057 -2.682134717682407 -3.020940259238854
upperneck 21.90644200183685 -3.1897937275426695 0.8356033461788229
head 9.544300260362053 -1.5963947064843154 0.39438851128667507
lclavicle -1.9539775432302315e-15 9.062321487456695e-16
lhumerus -29.379740249043042 -0.3586317184319081 83.2280126513413
lradius 27.986664066003488
lwrist 4.3874401460594585
lhand -26.445783068916004 25.508194618578457
lfingers 7.12502
lthumb 0.2716819126180572 55.99954431808229
rclavicle -1.955264802664321e-15 9.046307405430163e-16
rhumerus -29.381434866513043 -19.78323023874599 -78.7766513790971
rradius 22.870196407593657
rwrist 7.4647973460721
rhand -17.277547629698958 22.56566043663703
rfingers 7.12502
rthumb 8.928776413095456 -7.260178398312379
42
root -0.46217517525368207 18.210268114818977 11.010037350013665 -2.8237734175242983 0.3962163541623145 -5.874526760553174
lfemur -18.023427168399866 -1.9180481639251745 -13.717551116663515
ltibia 66.70229377328916
lfoot -1.9752422143203763 -5.373882839549052
ltoes -12.442968808280824
rfemur -7.871018855017112 5.319372049290071 32.225339881360014
rtibia 30.208883158723467
rfoot -8.059598709291265 -3.3930232863294902
rtoes 9.081062459148812
lowerback 9.294930843154237 -0.131811166284315 4.277758118529421
upperback 0.51391675286706 0.7043810362105065 2.8189707208719548
thorax -4.958618177158151 0.2720395308408047 0.6711873042589358
lowerneck -15.805578525684517 -2.74657825804639 -2.9418349855725343
upperneck 21.797736438781737 -3.31087881588723 0.9530380342983502
head 9.490570956462296 -1.643901134529359 0.42263094331930984
lclavicle -1.954261835488786e-15 9.059715225334372e-16
lhumerus -30.48776214790601 0.5315204929516708 82.86527247112113
lradius 27.299850174946926
lwrist 3.7567523785110897
lhand -26.625523915240272 25.044712560575455
lfingers 7.12502
lthumb 0.14837010443542076 55.55752937144899
rclavicle -1.953934873866436e-15 9.05705826870295e-16
rhumerus -28.277374366962327 -17.48115716037651 -79.948752292877
rradius 23.713917842167753
rwrist 6.301604297575591
rhand -17.115722864781606 22.903569006050457
rfingers 7.12502
rthumb 9.112440096401487 -6.93951641006476
